Coordinates
version=1
nRows=13
nColumns=34
inDegrees=yes

Units are S.I. units (second, meters, Newtons, ...)
If the header above contains a line with 'inDegrees', this indicates whether rotational values are in degrees (yes) or radians (no).

endheader
time	pelvis_tilt	pelvis_list	pelvis_rotation	pelvis_tx	pelvis_ty	pelvis_tz	hip_flexion_r	hip_adduction_r	hip_rotation_r	knee_angle_r	ankle_angle_r	subtalar_angle_r	mtp_angle_r	hip_flexion_l	hip_adduction_l	hip_rotation_l	knee_angle_l	ankle_angle_l	subtalar_angle_l	mtp_angle_l	lumbar_extension	lumbar_bending	lumbar_rotation	arm_flex_r	arm_add_r	arm_rot_r	elbow_flex_r	pro_sup_r	arm_flex_l	arm_add_l	arm_rot_l	elbow_flex_l	pro_sup_l
      5.41666670	      0.23388022	      9.58300637	   -185.02411057	      0.12715543	      1.07291465	      0.14810913	    -19.94669389	      9.89124618	      8.67751864	     77.72587164	    -11.70498046	    -35.00000000	      0.00000000	     33.61999873	     -9.86765344	    -12.42783968	     12.03693600	    -20.28453452	     11.52822077	      0.00000000	    -17.41766574	     11.64270466	     19.84126769	     10.91247055	    -24.33910465	      1.77079232	    117.95739130	    103.42420015	    -43.21682136	    -22.68422480	    -28.09985703	     98.15103273	     88.79431421
      5.42500000	      0.13641092	      9.61123601	   -184.76508956	      0.12860441	      1.06899733	      0.14781244	    -18.01823405	     10.23334427	      7.99686900	     85.78105238	    -10.75304130	    -34.99284127	      0.00000000	     32.95329279	     -9.52407285	    -12.06249326	     12.29487715	    -19.77858528	     11.06393637	      0.00000000	    -17.92759750	     10.88784327	     18.93529665	      9.31640678	    -24.65232871	      1.62841841	    114.38359075	    103.15733211	    -40.64553212	    -22.33119711	    -28.13774456	     98.32200541	     88.79145114
      5.43333330	      0.48693507	      9.43049569	   -184.32181286	      0.13028508	      1.06370398	      0.14710898	    -15.55622321	     10.32683487	      6.87888903	     93.25374455	    -10.45424913	    -34.83621068	      0.00000000	     32.85695017	     -8.95536065	    -11.55657963	     13.43647626	    -18.88944328	     10.05928102	      0.00000000	    -17.72870007	     10.01992648	     17.45555896	      7.97751976	    -24.02890553	      1.21711242	    110.30640616	    102.55782718	    -37.86710937	    -22.46454059	    -27.55363143	     97.97612245	     88.86902131
      5.44166670	      0.64553685	      9.07299770	   -183.59269580	      0.13223875	      1.05835110	      0.14662519	    -13.24291968	     10.15268851	      5.56158522	    100.06873281	    -10.01993393	    -33.95262242	      0.00000000	     32.59973547	     -8.14534496	    -10.94680444	     15.39438823	    -17.40221011	      8.58660144	      0.00000000	    -17.83455051	      8.96348278	     15.75496022	      6.35232407	    -23.42610098	      1.17540709	    106.56202093	    101.87906739	    -34.61711596	    -22.87666101	    -26.71461218	     97.55132148	     88.93740926
      5.45000000	      0.87061552	      8.59117914	   -182.62493543	      0.13363719	      1.05212728	      0.14622381	    -10.81445326	      9.75387111	      4.15393452	    106.27876817	     -9.53599665	    -32.06920241	      0.00000000	     32.38666758	     -7.17802776	    -10.32512995	     17.98788142	    -15.53613210	      6.78213269	      0.00000000	    -17.69355570	      7.85764447	     13.85528851	      4.31001426	    -22.89781281	      1.24021101	    102.75637528	    100.63048467	    -30.93104017	    -23.86836737	    -25.25894843	     96.67577362	     88.94729942
      5.45833330	      0.98994148	      7.94093245	   -181.54991960	      0.13509434	      1.04640198	      0.14605042	     -8.27747083	      9.10391030	      2.93116795	    112.05486212	     -9.22948858	    -29.70500662	      0.00000000	     31.92977270	     -5.99248034	     -9.69126729	     20.97063798	    -13.20186238	      4.62004060	      0.00000000	    -17.71687132	      6.57019801	     11.72748606	      2.44263474	    -22.04366593	      1.31765016	     98.44903438	     99.48275452	    -26.99705036	    -24.92785247	    -23.60301074	     95.80209548	     88.83409721
      5.46666670	      0.86512795	      7.17782346	   -180.31527657	      0.13688243	      1.04069433	      0.14625075	     -5.67236446	      8.14150199	      1.91794703	    117.41079622	     -8.90207864	    -26.91291132	      0.00000000	     31.00802619	     -4.60737018	     -8.97064519	     24.08234277	    -10.43972245	      2.09286449	      0.00000000	    -18.06817988	      5.14669682	      9.12309956	      0.93906352	    -20.97754367	      1.42682656	     93.57031932	     98.96132458	    -23.15495718	    -25.87073048	    -22.23086364	     95.34238165	     88.76870727
      5.47500000	      1.21811203	      6.15304982	   -179.25848292	      0.13835279	      1.03374994	      0.14634280	     -2.22988433	      6.77073141	      1.40520255	    122.59221262	     -8.12060499	    -23.60933192	      0.00000000	     30.48148783	     -3.00431341	     -8.31237024	     27.31838109	     -7.15567365	     -0.38337664	      0.00000000	    -17.67559868	      3.59261475	      6.60590924	     -0.78076904	    -20.26824466	      2.13193102	     88.81762429	     97.67423214	    -19.00230016	    -27.40592901	    -19.60687329	     93.62587315	     88.48398119
      5.48333330	      1.31819238	      4.98447643	   -178.15330904	      0.14028567	      1.02767072	      0.14683436	      1.21514414	      5.12424718	      1.14354303	    127.23997394	     -7.39934682	    -20.46722049	      0.00000000	     29.53809660	     -1.19650450	     -7.64700943	     30.27986853	     -3.87235517	     -2.91198386	      0.00000000	    -17.75560080	      1.88084542	      3.90443402	     -2.30048005	    -19.41782799	      2.47635701	     84.06308963	     96.37163958	    -14.87999695	    -28.79839328	    -17.13892798	     92.55269119	     88.16063472
      5.49166670	      1.36165402	      3.78685992	   -177.16476520	      0.14254624	      1.02234781	      0.14749335	      4.87374403	      3.36505168	      1.17642127	    131.27166235	     -6.98704887	    -17.97144647	      0.00000000	     28.37137998	      0.64426054	     -6.85738180	     32.83959062	     -0.76054613	     -5.27383371	      0.00000000	    -17.96866128	      0.19898772	      1.26172425	     -3.82045910	    -18.75464074	      2.93575062	     79.73357027	     94.80029771	    -10.49274417	    -30.09072223	    -14.32722868	     91.40583219	     87.75241870
      5.50000000	      1.15984812	      2.63876531	   -176.38524313	      0.14539699	      1.01912719	      0.14827324	      8.59619520	      1.66325633	      1.37324009	    134.51788008	     -6.28280484	    -15.89882656	      0.00000000	     26.70165443	      2.37127413	     -5.88017489	     34.81998019	      1.64456433	     -7.69039201	      0.00000000	    -18.57125184	     -1.38314627	     -1.23919926	     -5.32742409	    -18.31793512	      3.33043308	     76.04133223	     92.94301946	     -5.83776142	    -31.20139518	    -11.23305951	     90.28913154	     87.25854886
      5.50833330	      0.64898222	      1.58990451	   -175.83436512	      0.14887163	      1.01704116	      0.14900314	     12.04834203	      0.02089718	      1.68596338	    136.82617030	     -5.08653734	    -14.04076747	      0.00000000	     24.44078339	      3.87085882	     -4.80167293	     36.24307946	      3.56929555	    -10.06298974	      0.00000000	    -19.81175445	     -2.71844552	     -4.08709932	     -6.46219825	    -18.11249018	      3.78667672	     73.20029129	     92.02206019	     -2.00735162	    -31.96350764	     -9.33303451	     90.23795142	     87.04400360
      5.51666670	      0.24780969	      0.63239683	   -175.48714152	      0.15330078	      1.01605722	      0.14953487	     15.75536771	     -1.58483414	      2.01481213	    138.29688899	     -3.92013117	    -12.72214887	      0.00000000	     22.17055452	      5.20013659	     -3.66726144	     37.33148069	      4.91211829	    -11.99909547	      0.00000000	    -20.98373254	     -3.90873207	     -6.30254816	     -7.98847288	    -18.29915262	      4.46832666	     71.35989888	     90.21633348	      2.82032810	    -32.65585645	     -6.31620213	     89.40780251	     86.55146372
